<?xml version="1.0" encoding="utf-8"?>
<!-- Generated by Mocodo 4.2.8 -->
<svg width="469" height="431" viewBox="0 0 469 431" xmlns="http://www.w3.org/2000/svg">
<rect x="0" y="0" width="469" height="431" fill="#f7f7f7" stroke="none" stroke-width="0"/>

<!-- Association HAS_TYPE -->
<g>
	<line x1="166" y1="169" x2="49" y2="34" stroke="#4393c3" stroke-width="2"/>
	<line x1="49" y1="169" x2="49" y2="34" stroke="#4393c3" stroke-width="2"/>
	<g>
		<path d="M70 9 a14 14 90 0 1 14 14 V34 h-70 V23 a14 14 90 0 1 14 -14" fill="#92c5de" stroke="#92c5de" stroke-width="0"/>
		<path d="M84 34 v11 a14 14 90 0 1 -14 14 H28 a14 14 90 0 1 -14 -14 V34 H70" fill="#d1e5f0" stroke="#d1e5f0" stroke-width="0"/>
		<rect x="14" y="9" width="70" height="50" fill="none" rx="14" stroke="#4393c3" stroke-width="2"/>
		<line x1="14" y1="34" x2="84" y2="34" stroke="#4393c3" stroke-width="1"/>
		<text x="21" y="26.75" fill="#000000" font-family="Verdana" font-size="12">has_type</text>
	</g>
	<text x="95" y="127.72" fill="#b2182b" font-family="Verdana" font-size="12">1,1</text>
	<text x="54" y="136" fill="#b2182b" font-family="Verdana" font-size="12">0,N</text>
</g>

<!-- Association PRODUCED_IN -->
<g>
	<line x1="166" y1="169" x2="166" y2="34" stroke="#4393c3" stroke-width="2"/>
	<line x1="301" y1="34" x2="166" y2="34" stroke="#4393c3" stroke-width="2"/>
	<g>
		<path d="M197 9 a14 14 90 0 1 14 14 V34 h-90 V23 a14 14 90 0 1 14 -14" fill="#92c5de" stroke="#92c5de" stroke-width="0"/>
		<path d="M211 34 v11 a14 14 90 0 1 -14 14 H135 a14 14 90 0 1 -14 -14 V34 H90" fill="#d1e5f0" stroke="#d1e5f0" stroke-width="0"/>
		<rect x="121" y="9" width="90" height="50" fill="none" rx="14" stroke="#4393c3" stroke-width="2"/>
		<line x1="121" y1="34" x2="211" y2="34" stroke="#4393c3" stroke-width="1"/>
		<text x="129" y="26.75" fill="#000000" font-family="Verdana" font-size="12">produced_in</text>
	</g>
	<text x="171" y="76" fill="#b2182b" font-family="Verdana" font-size="12">1,N</text>
	<text x="225" y="51" fill="#b2182b" font-family="Verdana" font-size="12">0,N</text>
</g>

<!-- Association HAS_GENRE -->
<g>
	<line x1="166" y1="169" x2="301" y2="169" stroke="#4393c3" stroke-width="2"/>
	<line x1="416" y1="169" x2="301" y2="169" stroke="#4393c3" stroke-width="2"/>
	<g>
		<path d="M326 144 a14 14 90 0 1 14 14 V169 h-78 V158 a14 14 90 0 1 14 -14" fill="#92c5de" stroke="#92c5de" stroke-width="0"/>
		<path d="M340 169 v11 a14 14 90 0 1 -14 14 H276 a14 14 90 0 1 -14 -14 V169 H78" fill="#d1e5f0" stroke="#d1e5f0" stroke-width="0"/>
		<rect x="262" y="144" width="78" height="50" fill="none" rx="14" stroke="#4393c3" stroke-width="2"/>
		<line x1="262" y1="169" x2="340" y2="169" stroke="#4393c3" stroke-width="1"/>
		<text x="269" y="161.75" fill="#000000" font-family="Verdana" font-size="12">has_genre</text>
	</g>
	<text x="216" y="161" fill="#b2182b" font-family="Verdana" font-size="12">1,N</text>
	<text x="345" y="186" fill="#b2182b" font-family="Verdana" font-size="12">0,N</text>
</g>

<!-- Association HAS_SEASONS -->
<g>
	<line x1="166" y1="169" x2="166" y2="304" stroke="#4393c3" stroke-width="2"/>
	<line x1="166" y1="388" x2="166" y2="304" stroke="#4393c3" stroke-width="2"/>
	<g>
		<path d="M198 279 a14 14 90 0 1 14 14 V304 h-92 V293 a14 14 90 0 1 14 -14" fill="#92c5de" stroke="#92c5de" stroke-width="0"/>
		<path d="M212 304 v11 a14 14 90 0 1 -14 14 H134 a14 14 90 0 1 -14 -14 V304 H92" fill="#d1e5f0" stroke="#d1e5f0" stroke-width="0"/>
		<rect x="120" y="279" width="92" height="50" fill="none" rx="14" stroke="#4393c3" stroke-width="2"/>
		<line x1="120" y1="304" x2="212" y2="304" stroke="#4393c3" stroke-width="1"/>
		<text x="127" y="296.75" fill="#000000" font-family="Verdana" font-size="12">has_seasons</text>
	</g>
	<text x="139" y="271" fill="#b2182b" font-family="Verdana" font-size="12">0,N</text>
	<text x="171" y="346" fill="#b2182b" font-family="Verdana" font-size="12">1,1</text>
</g>

<!-- Association IS_PLAYED_BY -->
<g>
	<line x1="166" y1="169" x2="301" y2="304" stroke="#4393c3" stroke-width="2"/>
	<line x1="301" y1="388" x2="301" y2="304" stroke="#4393c3" stroke-width="2"/>
	<g>
		<path d="M344 279 a14 14 90 0 1 14 14 V304 h-114 V293 a14 14 90 0 1 14 -14" fill="#92c5de" stroke="#92c5de" stroke-width="0"/>
		<path d="M358 304 v11 a14 14 90 0 1 -14 14 H258 a14 14 90 0 1 -14 -14 V304 H114" fill="#d1e5f0" stroke="#d1e5f0" stroke-width="0"/>
		<rect x="244" y="279" width="114" height="50" fill="none" rx="14" stroke="#4393c3" stroke-width="2"/>
		<line x1="244" y1="304" x2="358" y2="304" stroke="#4393c3" stroke-width="1"/>
		<text x="261" y="296.75" fill="#000000" font-family="Verdana" font-size="12">is_played_by</text>
		<text x="251" y="321.8" fill="#000000" font-family="Verdana" font-size="12">character_name</text>
	</g>
	<text x="216" y="213.07" fill="#b2182b" font-family="Verdana" font-size="12">1,N</text>
	<text x="306" y="346" fill="#b2182b" font-family="Verdana" font-size="12">0,N</text>
</g>

<!-- Entity COUNTRY -->
<g>
	<g>
		<rect x="252" y="9" width="98" height="25" fill="#f4a582" stroke="none" stroke-width="0" opacity="1"/>
		<rect x="252" y="34" width="98" height="25" fill="#fddbc7" stroke="none" stroke-width="0" opacity="1"/>
		<rect x="252" y="9" width="98" height="50" fill="none" stroke="#d6604d" stroke-width="2" opacity="1"/>
		<line x1="252" y1="34" x2="350" y2="34" stroke="#d6604d" stroke-width="1"/>
	</g>
	<text x="277" y="26.75" fill="#000000" font-family="Verdana" font-size="12">Country</text>
	<text x="257" y="51.8" fill="#000000" font-family="Verdana" font-size="12">country_name</text>
	<line x1="257" y1="54" x2="345" y2="54" stroke="#000000" stroke-width="1"/>
</g>

<!-- Entity TYPE -->
<g>
	<g>
		<rect x="9" y="144" width="80" height="25" fill="#f4a582" stroke="none" stroke-width="0" opacity="1"/>
		<rect x="9" y="169" width="80" height="25" fill="#fddbc7" stroke="none" stroke-width="0" opacity="1"/>
		<rect x="9" y="144" width="80" height="50" fill="none" stroke="#d6604d" stroke-width="2" opacity="1"/>
		<line x1="9" y1="169" x2="89" y2="169" stroke="#d6604d" stroke-width="1"/>
	</g>
	<text x="34" y="161.75" fill="#000000" font-family="Verdana" font-size="12">Type</text>
	<text x="14" y="186.8" fill="#000000" font-family="Verdana" font-size="12">type_name</text>
	<line x1="14" y1="189" x2="83" y2="189" stroke="#000000" stroke-width="1"/>
</g>

<!-- Entity SHOW -->
<g>
	<g>
		<rect x="121" y="84" width="90" height="25" fill="#f4a582" stroke="none" stroke-width="0" opacity="1"/>
		<rect x="121" y="109" width="90" height="145" fill="#fddbc7" stroke="none" stroke-width="0" opacity="1"/>
		<rect x="121" y="84" width="90" height="170" fill="none" stroke="#d6604d" stroke-width="2" opacity="1"/>
		<line x1="121" y1="109" x2="211" y2="109" stroke="#d6604d" stroke-width="1"/>
	</g>
	<text x="149" y="101.75" fill="#000000" font-family="Verdana" font-size="12">Show</text>
	<text x="126" y="126.8" fill="#000000" font-family="Verdana" font-size="12">show_code</text>
	<line x1="126" y1="129" x2="194" y2="129" stroke="#000000" stroke-width="1"/>
	<text x="126" y="143.8" fill="#000000" font-family="Verdana" font-size="12">title</text>
	<text x="126" y="160.8" fill="#000000" font-family="Verdana" font-size="12">release_year</text>
	<text x="126" y="177.8" fill="#000000" font-family="Verdana" font-size="12">poster</text>
	<text x="126" y="194.8" fill="#000000" font-family="Verdana" font-size="12">duration</text>
	<text x="126" y="211.8" fill="#000000" font-family="Verdana" font-size="12">summary</text>
	<text x="126" y="228.8" fill="#000000" font-family="Verdana" font-size="12">synopsis</text>
	<text x="126" y="245.8" fill="#000000" font-family="Verdana" font-size="12">rating</text>
</g>

<!-- Entity GENRE -->
<g>
	<g>
		<rect x="372" y="144" width="88" height="25" fill="#f4a582" stroke="none" stroke-width="0" opacity="1"/>
		<rect x="372" y="169" width="88" height="25" fill="#fddbc7" stroke="none" stroke-width="0" opacity="1"/>
		<rect x="372" y="144" width="88" height="50" fill="none" stroke="#d6604d" stroke-width="2" opacity="1"/>
		<line x1="372" y1="169" x2="460" y2="169" stroke="#d6604d" stroke-width="1"/>
	</g>
	<text x="398" y="161.75" fill="#000000" font-family="Verdana" font-size="12">Genre</text>
	<text x="377" y="186.8" fill="#000000" font-family="Verdana" font-size="12">genre_name</text>
	<line x1="377" y1="189" x2="454" y2="189" stroke="#000000" stroke-width="1"/>
</g>

<!-- Entity SEASON -->
<g>
	<g>
		<rect x="117" y="354" width="98" height="25" fill="#f4a582" stroke="none" stroke-width="0" opacity="1"/>
		<rect x="117" y="379" width="98" height="43" fill="#fddbc7" stroke="none" stroke-width="0" opacity="1"/>
		<rect x="117" y="354" width="98" height="68" fill="none" stroke="#d6604d" stroke-width="2" opacity="1"/>
		<line x1="117" y1="379" x2="215" y2="379" stroke="#d6604d" stroke-width="1"/>
	</g>
	<text x="144" y="371.75" fill="#000000" font-family="Verdana" font-size="12">Season</text>
	<text x="122" y="396.8" fill="#000000" font-family="Verdana" font-size="12">number</text>
	<line x1="122" y1="399" x2="170" y2="399" stroke="#000000" stroke-width="1"/>
	<text x="122" y="413.8" fill="#000000" font-family="Verdana" font-size="12">episode_count</text>
</g>

<!-- Entity ACTOR -->
<g>
	<g>
		<rect x="259" y="354" width="84" height="25" fill="#f4a582" stroke="none" stroke-width="0" opacity="1"/>
		<rect x="259" y="379" width="84" height="43" fill="#fddbc7" stroke="none" stroke-width="0" opacity="1"/>
		<rect x="259" y="354" width="84" height="68" fill="none" stroke="#d6604d" stroke-width="2" opacity="1"/>
		<line x1="259" y1="379" x2="343" y2="379" stroke="#d6604d" stroke-width="1"/>
	</g>
	<text x="285" y="371.75" fill="#000000" font-family="Verdana" font-size="12">Actor</text>
	<text x="264" y="396.8" fill="#000000" font-family="Verdana" font-size="12">actor_code</text>
	<line x1="264" y1="399" x2="331" y2="399" stroke="#000000" stroke-width="1"/>
	<text x="264" y="413.8" fill="#000000" font-family="Verdana" font-size="12">actor_name</text>
</g>
</svg>